<?xml version="1.0" encoding="utf-8"?>
<!-- Generator: Adobe Illustrator 23.1.0, SVG Export Plug-In . SVG Version: 6.00 Build 0)  -->
<svg version="1.1" id="图层_1" xmlns="http://www.w3.org/2000/svg" xmlns:xlink="http://www.w3.org/1999/xlink" x="0px" y="0px"
	 viewBox="0 0 120 120" style="enable-background:new 0 0 120 120;" xml:space="preserve">
<style type="text/css">
	.st0{fill:#333333;}
	.st1{fill:#E91E63;}
	.st2{fill:#2299FF;}
</style>
<g>
	<path class="st0" d="M31,66.1c0.2,3.6-1.3,7.1-3.8,9.8c-2.5,2.5-6,3.9-9.6,3.8c-3.9,0-7-1-9.4-2.9c-2.4-2-3.8-4.9-4-8.1h5.1
		c0.2,1.9,1.1,3.8,2.6,5c1.7,1.3,3.8,1.9,5.9,1.8c2.2,0.1,4.3-0.8,5.7-2.5c1.5-1.8,2.3-4,2.2-6.3c0.2-2.4-0.7-4.7-2.3-6.5
		c-1.6-1.6-4-2.5-6.3-2.4c-1.4,0-2.9,0.4-4.2,1c-1.3,0.6-2.3,1.5-3,2.7l-4.1-0.3l2.8-20.8h20.2v4.7H12.3l-1.7,10.6l0.2-0.1
		c2-1.4,4.3-2.2,6.8-2.2c4.1,0,7.4,1.2,9.8,3.4C29.8,59.1,31,62.2,31,66.1z"/>
	<g>
		<rect x="37" y="40.4" class="st1" width="5" height="5.5"/>
		<polygon class="st0" points="37.1,49.7 39.5,49.7 42,49.7 42,79.6 39.5,79.6 37.1,79.6 		"/>
	</g>
	<path class="st0" d="M54.3,68.3c0,2.5,0.4,4.2,1.4,5.3s2.5,1.6,4.6,1.6c2.2,0.1,4.3-0.9,5.6-2.7c1.5-2.2,2.2-4.8,2-7.4V49.7h4.9v30
		h-4.6v-5.5c-0.3,0.5-0.7,1-1,1.5c-1.9,2.4-4.8,3.7-7.8,3.7c-3.3,0-5.7-0.8-7.4-2.5c-1.6-1.6-2.5-4.1-2.5-7.4V49.7h4.9L54.3,68.3
		L54.3,68.3L54.3,68.3z"/>
	<path class="st2" d="M102.1,76.5l2.6,2.5c0.6,0.5,1.4,0.9,2.3,0.8l0,0c0.8,0,1.6-0.4,2.1-0.9l5.8-6.3c1.2-1.3,1.1-3.2-0.2-4.4
		l-9.2-8.6l7.8-8.4c0.4-0.5,0.8-1.1,0.9-1.8l0.1-0.1l-0.1-0.1c0-0.1,0-0.2,0-0.3c0-0.8-0.3-1.6-0.9-2.3l-6-5.5
		c-0.6-0.5-1.3-0.8-2.2-0.8l0,0c-0.2,0-0.3,0-0.4,0l-0.2-0.1l-0.2,0.2c-0.6,0.2-1.1,0.5-1.6,0.9L95,49.7l-9.2-8.6
		c-1.3-1.2-3.2-1.1-4.4,0.2l0,0l-5.9,6.3c-1.2,1.3-1.1,3.2,0.2,4.4l3,2.7l3.2,3l3.1,2.9l-6.5,6.9l0,0l0,0l0,0v0.1l0,0v0.1l0,0l0,0
		v0.1l0,0c-0.1,0.1-0.1,0.2-0.1,0.3l-1.3,10.1c-0.1,0.6,0.3,1.2,0.9,1.3v0.1h0.7l0,0l9.8-2h0.1c0.3-0.1,0.6-0.3,0.8-0.5l6-6.6l6.4,6
		 M106.8,77.3c-0.2,0-0.3-0.1-0.4-0.2l-2.1-1.9l3.6-3.9c0.1,0,0.1-0.1,0.1-0.1c0.4-0.5,0.3-1.3-0.3-1.8c-0.5-0.4-1.2-0.3-1.6,0.1
		l-3.6,3.9l-1.4-1.3l3.6-3.9l0,0c0.2-0.3,0.4-0.6,0.3-0.9c0-0.3-0.2-0.7-0.4-0.9c-0.2-0.2-0.5-0.3-0.9-0.3c-0.3,0-0.7,0.2-0.9,0.4
		l-3.6,3.9l-2.1-1.9l6.7-7.1l9.2,8.6c0.2,0.2,0.2,0.6,0,0.8l-5.9,6.3C107.1,77.3,107,77.3,106.8,77.3L106.8,77.3z M88.2,52.9
		L88.2,52.9c0.4-0.5,0.4-1.3-0.1-1.8c-0.2-0.2-0.5-0.3-0.8-0.3c-0.3,0-0.6,0.2-0.8,0.4l0,0l-3.6,3.9l-1.4-1.3l3.6-3.9l0,0
		c0.4-0.5,0.4-1.3-0.1-1.7c-0.3-0.2-0.6-0.4-0.9-0.4s-0.6,0.2-0.8,0.4l0,0l-3.6,3.9l-2.1-1.9c-0.2-0.2-0.2-0.6,0-0.8l5.8-6.3
		c0.1-0.1,0.3-0.2,0.4-0.2l0,0c0.2,0,0.3,0.1,0.4,0.2l9.2,8.6l-6.6,7.1l-2.1-1.9L88.2,52.9L88.2,52.9z M100.5,47.6l6.9,6.4l-4.5,4.8
		l0,0l-8.3,8.9l-0.1,0.1l-6.4,6.9l-6.8-6.4L100.5,47.6z M85.4,75.7l-5.8,1.2l0.8-6L85.4,75.7z"/>
</g>
</svg>
