<?xml version="1.0" encoding="utf-8"?>
<!-- Generator: Adobe Illustrator 23.1.0, SVG Export Plug-In . SVG Version: 6.00 Build 0)  -->
<svg version="1.1" id="图层_1" xmlns="http://www.w3.org/2000/svg" xmlns:xlink="http://www.w3.org/1999/xlink" x="0px" y="0px"
	 viewBox="0 0 480 120" style="enable-background:new 0 0 480 120;" xml:space="preserve">
<style type="text/css">
	.st0{fill:#333333;}
	.st1{fill:#E91E63;}
	.st2{fill:#2299FF;}
</style>
<g>
	<path class="st0" d="M182.6,75.1c0.3,7.9-2.7,15.5-8.2,21.2c-5.5,5.5-13,8.5-20.8,8.2c-8.4,0-15.2-2.1-20.4-6.3
		c-5.2-4.4-8.3-10.7-8.6-17.5h11c0.3,4.2,2.4,8.2,5.7,10.9c3.7,2.7,8.2,4.1,12.7,3.8c4.7,0.1,9.3-1.8,12.4-5.3
		c3.3-3.8,5-8.7,4.8-13.7c0.3-5.1-1.5-10.2-5-14c-3.6-3.6-8.6-5.5-13.7-5.2c-3.1,0-6.2,0.8-9,2.2c-2.7,1.3-4.9,3.3-6.5,5.8l-8.9-0.6
		l6.1-45H178v10.2h-35.9l-3.7,23.1l0.3-0.2c4.3-3.1,9.4-4.8,14.7-4.8c8.9,0,15.9,2.5,21.2,7.4C180,60.1,182.6,66.7,182.6,75.1z"/>
	<g>
		<rect x="195.6" y="19.5" class="st1" width="10.8" height="12"/>
		<polygon class="st0" points="195.8,39.5 201,39.5 206.3,39.5 206.3,104.5 201,104.5 195.8,104.5 		"/>
	</g>
	<path class="st0" d="M232.9,80c0,5.3,1,9.1,3,11.4c2,2.3,5.3,3.5,9.9,3.5c4.8,0.2,9.3-2,12.1-5.9c3.2-4.7,4.7-10.3,4.4-16V39.6H273
		v65h-10V92.7c-0.7,1.1-1.5,2.2-2.3,3.2c-4.1,5.2-10.3,8.1-16.9,8c-7.1,0-12.4-1.8-16-5.3c-3.6-3.6-5.3-8.9-5.3-16V39.6h10.6V80z"/>
	<path class="st2" d="M336.6,97.7l5.6,5.3c1.3,1.2,3.1,1.9,4.9,1.8l0,0c1.8,0,3.4-0.8,4.6-2l12.6-13.6c2.5-2.7,2.4-7-0.3-9.5
		l-19.9-18.6L361,43c1-1.1,1.7-2.4,1.9-3.9l0.2-0.2l-0.1-0.2c0-0.2,0-0.4,0-0.7c0-1.8-0.7-3.6-2-4.9l-12.9-12
		c-1.3-1.2-2.9-1.8-4.7-1.7l0,0c-0.3,0-0.6,0-0.9,0l-0.3-0.2l-0.4,0.4c-1.3,0.3-2.4,1.1-3.4,2l-16.9,18.2l-20-18.6
		c-2.7-2.5-6.9-2.4-9.5,0.3l0,0l-12.7,13.6c-2.5,2.7-2.4,7,0.3,9.5l6.5,6l7,6.5l6.5,6.1l-14,15l0,0l0,0l0,0v0.1l0,0c0,0,0,0.1,0,0.1
		l0,0l0,0v0.2l0,0c-0.1,0.2-0.1,0.4-0.1,0.6l-2.8,21.9c-0.1,1.3,0.7,2.6,2,2.9v0.1h1.6l0,0l21.2-4.3h0.2c0.7-0.2,1.3-0.6,1.7-1.2
		l13-14.4l13.9,12.9 M346.8,99.3c-0.3,0-0.7-0.1-0.9-0.3l-4.5-4.2l7.7-8.4c0.1,0,0.1-0.1,0.1-0.1c0.9-1.2,0.6-2.9-0.6-3.8
		c-1.1-0.8-2.5-0.7-3.5,0.2l-7.8,8.4l-3-2.8l7.8-8.4l0,0c0.5-0.6,0.8-1.3,0.7-2c0-0.7-0.3-1.4-0.9-1.9c-0.5-0.5-1.2-0.7-1.9-0.7
		c-0.7,0-1.4,0.3-1.9,0.9l-7.8,8.4l-4.5-4.1L340.3,65l20,18.6c0.5,0.5,0.5,1.3,0,1.8L347.6,99c-0.2,0.3-0.6,0.4-0.9,0.4L346.8,99.3z
		 M306.5,46.7L306.5,46.7c1-1.1,0.9-2.8-0.2-3.8c-0.5-0.4-1.1-0.7-1.8-0.7c-0.7,0-1.3,0.3-1.8,0.8l0,0l-7.8,8.4l-3-2.8l7.8-8.4l0,0
		c0.9-1.1,0.9-2.7-0.1-3.7c-0.6-0.5-1.3-0.8-2-0.8c-0.7,0-1.3,0.3-1.8,0.8l0,0l-7.8,8.4l-4.5-4.2c-0.5-0.5-0.5-1.3,0-1.8L296,25.3
		c0.2-0.2,0.6-0.4,0.9-0.4l0,0c0.3,0,0.7,0.1,0.9,0.3l19.9,18.6l-14.4,15.5l-4.5-4.2l7.8-8.4L306.5,46.7z M333.1,35.1L348,48.9
		l-9.7,10.4l0,0l-18.1,19.4l-0.1,0.1l-13.9,14.9l-14.8-13.8L333.1,35.1z M300.5,96L288,98.5l1.7-12.9L300.5,96z"/>
</g>
</svg>
