<?xml version="1.0" encoding="utf-8"?>
<!-- Generator: Adobe Illustrator 24.1.1, SVG Export Plug-In . SVG Version: 6.00 Build 0)  -->
<svg version="1.1" id="图层_1" xmlns="http://www.w3.org/2000/svg" xmlns:xlink="http://www.w3.org/1999/xlink" x="0px" y="0px"
	 viewBox="0 0 16 16" style="enable-background:new 0 0 16 16;" xml:space="preserve">
<style type="text/css">
	.st0{fill:#707070;}
</style>
<path class="st0" d="M3.7,6.3c0,0.1,0,0.2,0.1,0.2l3.2,3.2C7.3,9.9,7.5,10,7.8,10c0.3,0,0.5-0.1,0.7-0.3l3.2-3.2
	c0.1-0.1,0.1-0.3,0-0.5c-0.1-0.1-0.3-0.1-0.5,0L8,9.3c-0.1,0.1-0.4,0.1-0.5,0L4.3,6.1C4.1,6,3.9,6,3.8,6.1C3.8,6.1,3.7,6.2,3.7,6.3z
	"/>
</svg>
