<?xml version="1.0" encoding="utf-8"?>
<!-- Generator: Adobe Illustrator 24.3.0, SVG Export Plug-In . SVG Version: 6.00 Build 0)  -->
<svg version="1.1" id="图层_1" xmlns="http://www.w3.org/2000/svg" xmlns:xlink="http://www.w3.org/1999/xlink" x="0px" y="0px"
	 viewBox="0 0 200 200" style="enable-background:new 0 0 200 200;" xml:space="preserve">
<style type="text/css">
	.st0{fill:#333333;}
	.st1{fill:#E91E63;}
	.st2{fill:#2299FF;}
</style>
<g>
	<path class="st0" d="M50,109.5c0.3,6.1-2.1,12-6.4,16.5c-4.3,4.3-10.1,6.6-16.2,6.4c-6.6,0-11.9-1.7-15.9-4.9
		c-4.1-3.4-6.5-8.3-6.7-13.6h8.6c0.3,3.2,1.9,6.4,4.4,8.5c2.9,2.1,6.4,3.1,9.9,3c3.7,0.1,7.2-1.4,9.6-4.2c2.6-3,3.9-6.8,3.7-10.7
		c0.3-4-1.2-8-3.9-10.9c-2.8-2.8-6.7-4.3-10.7-4.1c-2.4,0-4.8,0.6-7,1.8c-2.1,1-3.8,2.6-5.1,4.5l-6.9-0.5l4.7-35.1h34.1v8h-28
		l-2.9,18l0.3-0.2c3.3-2.4,7.3-3.7,11.5-3.7c6.9,0,12.4,1.9,16.5,5.7C48,97.9,50,103,50,109.5z"/>
	<g>
		<rect x="60.1" y="66.3" class="st1" width="8.4" height="9.4"/>
		<polygon class="st0" points="60.3,81.8 64.3,81.8 68.4,81.8 68.4,132.4 64.3,132.4 60.3,132.4 		"/>
	</g>
	<path class="st0" d="M89.2,113.3c0,4.2,0.7,7.1,2.3,8.9c1.6,1.8,4.2,2.7,7.7,2.7c3.7,0.2,7.2-1.6,9.4-4.6c2.5-3.7,3.7-8.1,3.4-12.5
		V81.9h8.3v50.7h-7.8v-9.3c-0.6,0.8-1.2,1.8-1.8,2.5c-3.1,4.1-8.1,6.3-13.2,6.2c-5.6,0-9.6-1.4-12.5-4.2c-2.8-2.8-4.2-6.9-4.2-12.5
		V81.9h8.2L89.2,113.3L89.2,113.3L89.2,113.3z"/>
	<path class="st2" d="M170,127.1l4.4,4.2c1,0.9,2.4,1.5,3.8,1.4l0,0c1.4,0,2.7-0.6,3.6-1.6l9.8-10.6c1.9-2.1,1.9-5.5-0.3-7.4
		l-15.5-14.5L189,84.5c0.7-0.8,1.3-1.9,1.5-3.1l0.2-0.2l-0.1-0.2c0-0.2,0-0.3,0-0.6c0-1.4-0.6-2.8-1.6-3.8l-10.1-9.4
		c-1-0.9-2.2-1.4-3.7-1.3l0,0c-0.3,0-0.5,0-0.7,0l-0.3-0.2l-0.3,0.3c-1,0.3-1.9,0.8-2.7,1.6L158,81.9l-15.6-14.5
		c-2.1-1.9-5.4-1.9-7.4,0.3l0,0l-9.9,10.6c-1.9,2.1-1.9,5.5,0.3,7.4l5.1,4.6l5.5,5.1l5.2,4.8l-10.9,11.7l0,0l0,0l0,0v0.1l0,0v0.1
		l0,0l0,0v0.2l0,0c-0.1,0.2-0.1,0.3-0.1,0.5l-2.2,17c-0.1,1,0.6,2,1.6,2.2v0.1h1.2l0,0l16.5-3.3h0.2c0.6-0.2,1-0.5,1.3-0.9
		l10.1-11.2l10.8,10.1 M177.9,128.4c-0.3,0-0.6-0.1-0.7-0.3l-3.5-3.2l6-6.6c0.1,0,0.1-0.1,0.1-0.1c0.7-0.9,0.5-2.2-0.5-3
		c-0.8-0.6-1.9-0.6-2.7,0.2l-6.1,6.6l-2.3-2.2l6.1-6.6l0,0c0.4-0.5,0.6-1,0.6-1.6c0-0.6-0.3-1.1-0.7-1.5c-0.4-0.4-0.9-0.6-1.5-0.6
		s-1.1,0.3-1.5,0.7l-6.1,6.6l-3.5-3.1l11.3-12l15.6,14.5c0.4,0.4,0.4,1,0,1.4l-9.9,10.6C178.4,128.4,178.1,128.5,177.9,128.4
		L177.9,128.4z M146.5,87.4L146.5,87.4c0.7-0.8,0.7-2.2-0.2-3c-0.4-0.3-0.8-0.6-1.4-0.6s-1,0.3-1.4,0.6l0,0l-6.1,6.6l-2.3-2.2
		l6.1-6.6l0,0c0.7-0.8,0.7-2.1-0.1-2.9c-0.5-0.4-1-0.6-1.6-0.6s-1,0.3-1.4,0.6l0,0l-6.1,6.6l-3.5-3.2c-0.4-0.4-0.4-1,0-1.4l9.8-10.7
		c0.2-0.2,0.5-0.3,0.7-0.3l0,0c0.3,0,0.6,0.1,0.7,0.3l15.5,14.5l-11.2,12l-3.5-3.2L146.5,87.4L146.5,87.4z M167.3,78.4l11.6,10.7
		l-7.6,8.1l0,0l-14.1,15.1l-0.1,0.1L146.3,124l-11.5-10.7L167.3,78.4z M141.8,125.8l-9.7,1.9l1.3-10.1L141.8,125.8z"/>
</g>
</svg>
